<svg width="20" height="23" viewBox="0 0 20 23" fill="none" xmlns="http://www.w3.org/2000/svg">
<path d="M5.03821 1H14.8415C15.3997 1.48789 15.8835 2.04194 16.3011 2.60012H3.57867C3.99627 2.04194 4.48416 1.48789 5.03821 1ZM17.6241 4.82457C19.6419 9.27348 19.0134 14.4211 17.4174 18.1051H2.46644C0.866324 14.4211 0.241989 9.27348 2.32586 4.82457H17.6241ZM16.2349 20.3296C15.8173 21.0242 15.3294 21.5824 14.8456 22H5.03821C4.55032 21.5824 4.13271 21.0284 3.64896 20.3296H16.2349Z" stroke="black" stroke-width="1.3" stroke-linecap="round" stroke-linejoin="round"/>
<path d="M6.63823 1H13.3116C13.6589 1.48789 14.0062 2.04194 14.2832 2.60012H5.66658C5.94361 2.04194 6.22063 1.48789 6.63823 1ZM15.1226 4.82457C16.5821 9.27348 16.0942 14.4211 15.0523 18.1051H4.90167C3.78944 14.4211 3.37184 9.27348 4.76109 4.82457H15.1226ZM14.2171 20.3296C13.9401 21.0242 13.5927 21.5824 13.3116 22H6.63823C6.29092 21.5824 5.94361 21.0284 5.66658 20.3296H14.2171Z" stroke="black" stroke-width="1.3" stroke-linecap="round" stroke-linejoin="round"/>
<path d="M8.44569 1H11.4351C11.6418 1.48789 11.7824 2.04194 11.923 2.60012H8.02809C8.16867 2.04194 8.30925 1.48789 8.44569 1ZM12.2703 4.82457C12.8946 9.27348 12.7582 14.4211 12.2 18.1051H7.68078C7.61049 17.6172 7.5402 16.9929 7.47405 16.4347C8.09838 16.2942 8.58627 15.8104 8.58627 15.1116C8.58627 14.4129 8.02809 13.8588 7.26318 13.8588C7.1226 10.9398 7.19289 7.73952 7.61049 4.82044L12.2703 4.82457ZM11.8527 20.3296C11.7121 21.0242 11.5756 21.5824 11.4351 22H8.44569C8.30512 21.5824 8.16867 21.0284 8.02809 20.3296H11.8527Z" stroke="black" stroke-width="1.3" stroke-linecap="round" stroke-linejoin="round"/>
<path d="M1.98438 18.1054H17.9773L16.7245 20.3298H3.16276L1.98438 18.1054Z" stroke="black" stroke-width="1.3" stroke-linecap="round" stroke-linejoin="round"/>
<path d="M1.98438 4.82501H17.9773L16.7245 2.60056H3.16276L1.98438 4.82501Z" stroke="black" stroke-width="1.3" stroke-linecap="round" stroke-linejoin="round"/>
<path d="M8.51733 15.1159C8.51733 15.8064 7.95501 16.3687 7.26452 16.3687C6.57403 16.3687 6.01172 15.8064 6.01172 15.1159C6.01172 14.4254 6.57403 13.8631 7.26452 13.8631C7.95501 13.8631 8.51733 14.4254 8.51733 15.1159Z" stroke="black" stroke-width="1.3" stroke-miterlimit="6.73"/>
</svg>
