<svg width="15" height="22" viewBox="0 0 15 22" fill="none" xmlns="http://www.w3.org/2000/svg">
<path fill-rule="evenodd" clip-rule="evenodd" d="M13.3794 0C16.3142 5.28087 13.3053 12.245 7.88052 12.7596V20.4607H10.3007C11.1816 20.4607 11.1816 22 10.3007 22H4.21313C3.40639 22 3.33226 20.4607 4.28726 20.4607H6.70748V12.7596C1.27834 12.245 -1.80035 5.28087 1.13444 0H13.3794ZM10.667 9.82478C7.07378 12.9776 2.01531 10.1911 1.64465 4.91021C6.04465 3.00456 7.06942 7.9889 12.5727 6.81586C12.2064 7.91913 11.5479 9.01804 10.667 9.82478ZM12.721 1.09891H1.86704C-0.186871 5.79108 2.59965 11.5865 7.29182 11.5865C11.984 11.5865 14.7749 5.79108 12.721 1.09891Z" fill="black"/>
</svg>
