<svg width="14" height="24" viewBox="0 0 14 24" fill="none" xmlns="http://www.w3.org/2000/svg">
<path d="M11.433 23C10.6696 23 9.85054 22.4712 9.85054 20.996V14.7098L9.17459 14.662C8.93205 14.6422 8.74517 14.4434 8.74517 14.2008V13.4414C8.74119 10.1451 8.74119 6.84495 8.74517 3.54475C8.74517 2.04177 9.60402 1.02785 10.8804 1.0199C12.1925 1.0199 13.0315 2.002 13.0315 3.52089C13.0354 9.34992 13.0354 15.1829 13.0315 21.0159C13.0315 22.7575 11.9579 22.9841 11.5006 23H11.433ZM9.67161 13.7674L10.3476 13.8151C10.5901 13.835 10.777 14.0338 10.777 14.2764V20.996C10.777 21.7117 10.9996 22.0775 11.433 22.0775V22.5388L11.4649 22.0736C11.6557 22.0656 12.101 22.0537 12.101 21.0159C12.105 15.1869 12.105 9.35389 12.101 3.52089C12.101 3.04773 11.9817 1.94634 10.8923 1.94634C10.1209 1.95031 9.66763 2.54674 9.66763 3.54475C9.66366 6.84495 9.66366 10.1412 9.66763 13.4374L9.67161 13.7674Z" fill="black" stroke="black" stroke-width="0.5" stroke-miterlimit="10"/>
<path d="M1.48893 8.53875C1.23445 8.53875 1.02372 8.33199 1.02372 8.07354C1.02372 6.60237 1.01974 6.10138 1.01576 5.57653C1.01179 4.99203 1.00781 4.37573 1.00781 2.37573C1.00781 2.12126 1.21457 1.91052 1.47302 1.91052C1.73147 1.91052 1.93823 2.11728 1.93823 2.37573C1.93823 4.37175 1.94221 4.98408 1.95016 5.56857C1.95413 6.0974 1.95811 6.59839 1.95811 8.07354C1.95016 8.33199 1.7434 8.53875 1.48893 8.53875Z" fill="black" stroke="black" stroke-width="0.5" stroke-miterlimit="10"/>
<path d="M4.22474 23C4.19293 23 4.1651 23 4.12931 22.996C3.7476 23.0239 3.34999 22.8767 3.05178 22.5944C2.70188 22.2644 2.50705 21.7634 2.50307 21.1869C2.49114 17.7515 2.49114 14.3201 2.50705 10.8847C2.50705 10.3598 2.47524 10.169 2.05774 9.92644C1.44542 9.57257 1.05178 8.71372 1.02395 8.09344C1.01202 7.83897 1.21083 7.62028 1.4653 7.60835C1.70387 7.57257 1.93846 7.79523 1.95039 8.0497C1.97027 8.43539 2.25258 8.96819 2.52693 9.12724C3.36987 9.62028 3.43747 10.2406 3.43349 10.8887C3.41759 14.3201 3.42156 17.7515 3.42951 21.1829C3.42951 21.501 3.52096 21.7634 3.68399 21.9185C3.79929 22.0298 3.95436 22.0815 4.12534 22.0696C4.36391 22.0855 4.50307 22.0298 4.61838 21.9185C4.78538 21.7634 4.87285 21.501 4.87285 21.1829C4.88478 17.7515 4.88478 14.3201 4.87285 10.8887C4.87285 10.2406 4.94045 9.62028 5.77941 9.12724C6.06172 8.96024 6.35198 8.42744 6.35198 8.06958C6.35198 7.10338 6.35595 6.17694 6.36391 5.24652C6.36788 4.30815 6.37583 3.36581 6.37583 2.3678C6.37583 2.11332 6.58259 1.90259 6.84104 1.90259C7.09949 1.90259 7.30625 2.10935 7.30625 2.3678C7.30625 3.36581 7.30228 4.31213 7.29432 5.24652C7.29035 6.17296 7.28239 7.09941 7.28239 8.06163C7.28239 8.75348 6.81719 9.58449 6.2486 9.91849C5.8311 10.161 5.79929 10.3519 5.79929 10.8767C5.8152 14.3121 5.81122 17.7435 5.79929 21.1789C5.79929 21.7515 5.60446 22.2525 5.25059 22.5865C4.98418 22.8608 4.61838 23 4.22474 23Z" fill="black" stroke="black" stroke-width="0.5" stroke-miterlimit="10"/>
<path d="M3.27478 7.31808C3.02031 7.31808 2.80957 7.11132 2.80957 6.85287V2.37573C2.80957 2.12126 3.01633 1.91052 3.27478 1.91052C3.53323 1.91052 3.73999 2.11728 3.73999 2.37573V6.85287C3.73999 7.11132 3.53323 7.31808 3.27478 7.31808Z" fill="black" stroke="black" stroke-width="0.5" stroke-miterlimit="10"/>
<path d="M5.05603 7.31808C4.80156 7.31808 4.59082 7.11132 4.59082 6.85287V2.37573C4.59082 2.12126 4.79758 1.91052 5.05603 1.91052C5.31448 1.91052 5.52124 2.11728 5.52124 2.37573V6.85287C5.52124 7.11132 5.31448 7.31808 5.05603 7.31808Z" fill="black" stroke="black" stroke-width="0.5" stroke-miterlimit="10"/>
<path d="M3.26996 2.84095C3.01548 2.84095 2.80475 2.63419 2.80475 2.37575C2.80475 2.1173 2.61389 1.93042 2.3793 1.93042C2.14471 1.93042 1.95385 2.12922 1.95385 2.37575C1.95385 2.62227 1.7471 2.84095 1.48865 2.84095C1.2302 2.84095 1.02344 2.63419 1.02344 2.37575C1.02344 1.62028 1.63179 1 2.3793 1C3.12682 1 3.73517 1.6163 3.73517 2.37575C3.73119 2.63419 3.52443 2.84095 3.26996 2.84095Z" fill="black" stroke="black" stroke-width="0.5" stroke-miterlimit="10"/>
<path d="M5.05609 2.84095C4.80162 2.84095 4.59088 2.63419 4.59088 2.37575C4.59088 2.1173 4.40003 1.93042 4.16543 1.93042C3.93084 1.93042 3.73999 2.12922 3.73999 2.37575C3.73999 2.62227 3.53323 2.84095 3.27478 2.84095C3.01633 2.84095 2.80957 2.63419 2.80957 2.37575C2.80957 1.62028 3.41792 1 4.16543 1C4.91295 1 5.5213 1.6163 5.5213 2.37575C5.5213 2.63419 5.31454 2.84095 5.05609 2.84095Z" fill="black" stroke="black" stroke-width="0.5" stroke-miterlimit="10"/>
<path d="M6.83734 2.84095C6.58287 2.84095 6.37213 2.63419 6.37213 2.37575C6.37213 2.1173 6.18128 1.93042 5.94271 1.93042C5.70414 1.93042 5.51726 2.12922 5.51726 2.37575C5.51726 2.62227 5.3105 2.84095 5.05205 2.84095C4.7936 2.84095 4.59082 2.63419 4.59082 2.37575C4.59082 1.62028 5.19917 1 5.94668 1C6.6942 1 7.30255 1.6163 7.30255 2.37575C7.30255 2.63419 7.09579 2.84095 6.83734 2.84095Z" fill="black" stroke="black" stroke-width="0.5" stroke-miterlimit="10"/>
<path d="M1.46521 2.84095C1.21074 2.84095 1 2.63419 1 2.37575C1 1.62028 1.62028 1 2.37972 1C2.63419 1 2.84493 1.20676 2.84493 1.46521C2.84493 1.72366 2.63817 1.93042 2.37972 1.93042C2.12127 1.93042 1.92644 2.12922 1.92644 2.37575C1.92644 2.62227 1.71968 2.84095 1.46521 2.84095Z" fill="black" stroke="black" stroke-width="0.5" stroke-miterlimit="10"/>
</svg>
