<svg width="15" height="24" viewBox="0 0 15 24" fill="none" xmlns="http://www.w3.org/2000/svg">
<path d="M9.37449 17.7671C8.64095 17.6354 7.86788 17.7013 7.13874 17.9604C6.03624 18.3513 5.20168 19.1068 4.85907 19.9853L3.93226 19.9326H3.9103C3.31293 19.915 2.42127 19.3616 1.95567 18.4743C1.5911 17.7759 1.3583 16.6295 2.32903 15.1361L9.79616 3.93097C9.80055 3.92658 9.80495 3.9178 9.80934 3.9134C10.499 2.81529 10.7976 2.01148 10.5209 0.654218C10.4287 0.210583 9.99821 -0.0749255 9.55458 0.0173156C9.11094 0.109557 8.82543 0.540015 8.91768 0.983651C9.0758 1.76111 8.98795 2.14325 8.43011 3.03052L0.962979 14.2312C0.962979 14.2356 0.958587 14.2356 0.958587 14.24C-0.521663 16.5109 0.0361757 18.3425 0.501774 19.2342C1.19578 20.5695 2.575 21.5271 3.84881 21.571L7.25734 21.7599H7.30565C7.3364 21.7599 7.37154 21.7599 7.40229 21.7555C7.54284 21.7686 7.68779 21.8082 7.76686 21.896C7.87667 22.0146 7.92498 22.7965 7.89863 23.1083C7.8591 23.5608 8.19732 23.9561 8.64534 23.9956C8.66731 23.9956 8.69366 24 8.71562 24C9.1373 24 9.49748 23.675 9.53262 23.2489C9.5985 22.4539 9.40524 21.2591 8.97478 20.7891C8.68927 20.4817 8.15778 20.1127 7.24416 20.1127C7.2178 20.1127 7.19145 20.1127 7.1607 20.1171L6.73024 20.0907C6.97183 19.8491 7.30565 19.6383 7.68779 19.5065C8.06115 19.3748 9.36131 19.0234 10.3804 20.0907C10.6922 20.4202 11.2105 20.4289 11.54 20.1171C11.8694 19.8052 11.8782 19.2869 11.5663 18.9575C10.9645 18.3294 10.2091 17.9209 9.37449 17.7671Z" fill="black"/>
<path d="M13.6921 15.8433C13.4461 15.2591 13.0201 14.7759 12.5018 14.4201C12.2426 14.2401 11.9659 14.0951 11.6892 13.9721C11.1313 13.7261 10.5647 13.5636 10.0157 13.4231L10.0069 13.4187C9.94538 13.4055 9.88389 13.3967 9.818 13.3967C9.36119 13.3923 8.98783 13.7569 8.98344 14.2137C8.97905 14.6705 9.34362 15.0439 9.80043 15.0483C10.3231 15.057 10.8327 15.079 11.3114 15.1669C11.7902 15.2547 12.2031 15.448 12.6072 15.6764C13.5604 16.221 13.9337 18.1449 13.9074 18.3953C14.1753 17.754 14.0611 16.5197 13.6921 15.8433Z" fill="black"/>
</svg>
