<svg width="11" height="22" viewBox="0 0 11 22" fill="none" xmlns="http://www.w3.org/2000/svg">
<path d="M7.15 16.906C7.15 18.0452 6.23333 18.9619 5.09405 18.9619C3.95476 18.9619 3.0381 18.0452 3.0381 16.906C3.0381 16.0286 3.5881 15.2952 4.36071 15.0006V8.17798C4.36071 7.77202 4.6881 7.44464 5.09405 7.44464C5.5 7.44464 5.82738 7.77202 5.82738 8.17798V14.994C6.6 15.2887 7.15 16.0613 7.15 16.906ZM10.1881 16.906C10.1881 19.728 7.87679 22 5.09405 22C2.31131 22 0 19.728 0 16.906C0 15.2952 0.772619 13.7893 2.05595 12.8333V3.04464C2.05595 1.35536 3.41131 0 5.1006 0C6.78988 0 8.14524 1.35536 8.14524 3.04464V12.8333C9.42202 13.822 10.1881 15.2887 10.1881 16.906ZM8.72143 16.906C8.72143 15.6619 8.09941 14.5226 7.03214 13.8613C6.80952 13.7173 6.70476 13.4946 6.70476 13.2393V3.04464C6.70476 2.16726 6.01072 1.46667 5.12679 1.46667C4.24286 1.46667 3.54881 2.16071 3.54881 3.04464V13.2393C3.54881 13.4946 3.40476 13.7173 3.22143 13.8613C2.16071 14.5226 1.53214 15.6554 1.53214 16.906C1.53214 18.8833 3.14286 20.5333 5.15952 20.5333C7.17619 20.5333 8.72143 18.9226 8.72143 16.906Z" fill="black"/>
</svg>
