<svg width="24" height="24" viewBox="0 0 24 24" fill="none" xmlns="http://www.w3.org/2000/svg">
<path d="M17.0328 7.0886C16.8891 6.83213 16.5609 6.73467 16.3044 6.87829C16.0428 7.02192 15.9505 7.3502 16.0941 7.60667C16.6788 8.66845 17.7252 9.007 18.8229 9.007C20.7311 9.007 22.8033 7.98111 22.9367 7.91443L23.5471 7.60667L23.1009 7.0886C21.6851 5.42667 20.1309 4.52903 18.4946 4.41618C17.5714 4.35463 16.7712 4.55468 16.1505 4.81115C16.607 2.71835 15.6171 1.02565 15.6017 1L14.6835 1.55398C14.7604 1.68221 16.4839 4.63162 13.3191 7.31942C13.2678 7.30403 13.2216 7.28865 13.1703 7.27839C13.2421 6.86291 13.2473 6.44229 13.1549 6.02681C12.8318 4.50851 11.4725 3.40056 9.91829 3.40056C9.68747 3.40056 9.45665 3.42621 9.23095 3.47237C7.5126 3.83656 6.39439 5.4831 6.64573 7.19632H6.6406C6.40978 7.19632 6.17896 7.22196 5.95326 7.26813C4.16823 7.6477 3.02438 9.40709 3.40395 11.1921C3.51167 11.6948 3.73223 12.1513 4.04 12.5463C3.84508 12.5463 3.64503 12.5668 3.45012 12.6078C2.6448 12.7771 1.95233 13.2541 1.50094 13.9466C1.04956 14.6391 0.895676 15.4598 1.07008 16.2702C1.24447 17.0909 1.74203 17.7783 2.41398 18.2143C1.9113 18.8965 1.71125 19.7582 1.89078 20.6097C2.18316 21.9946 3.42447 23 4.83506 23C5.04536 23 5.25567 22.9795 5.46084 22.9333C6.45082 22.723 7.24074 22.0357 7.61519 21.1278C8.07684 21.374 8.60004 21.5125 9.14888 21.5125C9.3797 21.5125 9.61053 21.4868 9.83622 21.4407C11.3289 21.1226 12.3753 19.8352 12.4471 18.3733C12.6164 18.3989 12.7908 18.4194 12.9703 18.4194C13.2011 18.4194 13.4319 18.3938 13.6576 18.3476C14.8989 18.086 15.8325 17.1525 16.1556 16.0086C16.248 16.0189 16.3403 16.0291 16.4326 16.0291C16.6327 16.0291 16.8327 16.0086 17.0276 15.9676C17.8176 15.7983 18.4998 15.3315 18.9409 14.6545C19.382 13.9774 19.5308 13.1669 19.3666 12.377C19.0743 10.9869 17.8278 9.97645 16.407 9.97645C16.1967 9.97645 15.9864 9.99697 15.7761 10.0431C15.7299 10.0534 15.6889 10.0688 15.6478 10.079C15.6376 9.98671 15.6222 9.89951 15.6017 9.80718C15.4324 9.00187 14.9656 8.31453 14.3398 7.84775C14.8425 7.37072 15.2221 6.88855 15.5093 6.40639C15.7555 6.21147 16.8789 5.39077 18.4177 5.49336C19.577 5.57543 20.7106 6.16531 21.7877 7.24761C20.5361 7.74516 17.8637 8.58638 17.0328 7.0886ZM7.72804 7.17067C7.47157 5.96526 8.24611 4.77524 9.45152 4.51877C9.6054 4.48799 9.76441 4.46747 9.91829 4.46747C10.9647 4.46747 11.888 5.21124 12.1034 6.24225C12.1701 6.55514 12.1701 6.87829 12.0983 7.18606C11.9598 7.19632 11.8213 7.21683 11.6828 7.24248C11.57 7.26813 11.4571 7.2989 11.3494 7.32968C11.3289 7.33481 11.3084 7.34507 11.2878 7.3502C11.2006 7.38098 11.1083 7.41175 11.0262 7.45279C11.0057 7.46305 10.9903 7.4733 10.9698 7.47843C10.8826 7.51947 10.8005 7.5605 10.7185 7.60667C10.7031 7.61693 10.6877 7.62719 10.6723 7.63744C10.5902 7.68361 10.5133 7.74003 10.4364 7.79133C10.421 7.80159 10.4056 7.81697 10.3902 7.82723C10.3184 7.88366 10.2414 7.94008 10.1748 8.00163C10.1594 8.01702 10.144 8.03241 10.1235 8.0478C10.0568 8.10935 9.99523 8.1709 9.93368 8.23759C9.91316 8.2581 9.89777 8.27862 9.88239 8.29914C9.82596 8.36582 9.76954 8.4325 9.71825 8.49918C9.70286 8.5197 9.68747 8.54535 9.66695 8.56587C9.64643 8.59664 9.62079 8.62742 9.59514 8.66332C9.56949 8.70436 9.54385 8.75052 9.5182 8.79669C9.51307 8.80695 9.50281 8.81721 9.49768 8.82747C9.49255 8.81721 9.48742 8.81208 9.48229 8.80182C9.45152 8.7454 9.41561 8.6941 9.3797 8.63768C9.36432 8.61203 9.3438 8.58638 9.32841 8.56074C9.2925 8.50944 9.25147 8.45815 9.21043 8.40685C9.19505 8.38634 9.17966 8.36582 9.15914 8.3453C9.10785 8.28375 9.05142 8.22733 8.995 8.1709C8.98987 8.16577 8.98474 8.15551 8.97448 8.15038C8.64107 7.81697 8.23585 7.55025 7.78959 7.38097C7.76907 7.32455 7.74343 7.24761 7.72804 7.17067ZM10.1235 12.7976C10.1696 13.0131 10.1799 13.2234 10.1645 13.4337C10.1594 13.4593 10.1491 13.485 10.144 13.5106C10.103 13.8799 9.98497 14.2133 9.79006 14.5057C9.79006 14.5057 9.79006 14.5108 9.78493 14.5108C9.65669 14.7006 9.49768 14.8699 9.31815 15.0135C9.29763 15.0238 9.28225 15.034 9.26686 15.0443C9.00013 15.2443 8.71801 15.3777 8.41538 15.4444C8.41025 15.4444 8.40512 15.4495 8.39486 15.4495C8.32818 15.4649 8.2615 15.4752 8.19481 15.4803C8.07171 15.4957 7.94347 15.4957 7.81524 15.4854C7.78959 15.4854 7.76394 15.4803 7.7383 15.4803C7.687 15.4752 7.63571 15.47 7.57929 15.4598C7.5639 15.4547 7.54338 15.4598 7.52799 15.4547C7.31256 15.4136 7.10738 15.3367 6.91759 15.2392C6.90733 15.2341 6.89707 15.2238 6.88682 15.2136C6.60983 15.0648 6.37388 14.8648 6.18409 14.6288C6.15331 14.5929 6.12766 14.557 6.10202 14.516C6.07124 14.4749 6.04559 14.4339 6.01995 14.3929C5.96865 14.3057 5.92249 14.2185 5.88145 14.1261C5.87119 14.1005 5.86094 14.0697 5.85068 14.0441C5.80964 13.9415 5.77374 13.8338 5.75322 13.7209V13.7107C5.72757 13.5927 5.71218 13.4593 5.71218 13.3054C5.71218 13.2952 5.70705 13.2849 5.70705 13.2747C5.70705 13.1823 5.71218 13.0849 5.72244 12.9925C5.72757 12.972 5.7327 12.9566 5.73783 12.9361C5.85581 12.1308 6.39952 11.4588 7.13303 11.1716C7.14842 11.1665 7.15867 11.1613 7.17406 11.1562C7.27152 11.1203 7.37411 11.0895 7.48183 11.0639C7.55364 11.0485 7.62545 11.0382 7.69726 11.028C7.75881 11.0229 7.82037 11.0177 7.87679 11.0177H7.90244C7.93834 11.0177 7.97938 11.0177 8.01528 11.0228C8.09223 11.0228 8.16917 11.0331 8.24098 11.0434C8.30766 11.0536 8.37947 11.0639 8.44615 11.0844C8.49232 11.0947 8.53848 11.1049 8.57952 11.1203C8.66672 11.146 8.75392 11.1819 8.84112 11.2178C8.87702 11.2332 8.9078 11.2485 8.94371 11.2639C9.00013 11.2896 9.05142 11.3204 9.10272 11.3511C9.17453 11.3973 9.24634 11.4435 9.31815 11.4948C9.32841 11.505 9.33867 11.5204 9.34893 11.5307C9.73876 11.8487 10.0055 12.2693 10.1183 12.7463C10.1183 12.7515 10.1235 12.7515 10.1235 12.7566C10.1132 12.772 10.1183 12.7822 10.1235 12.7976ZM6.17896 8.31453C6.33284 8.28375 6.49185 8.26323 6.64573 8.26323C6.84065 8.26323 7.03044 8.29914 7.20997 8.3453C7.22023 8.35043 7.23561 8.35556 7.24587 8.36069C7.48183 8.42737 7.70239 8.52996 7.90244 8.66332C7.90757 8.66845 7.9127 8.67358 7.92296 8.67358C7.98451 8.71462 8.04606 8.76078 8.10248 8.81208C8.16404 8.8685 8.22559 8.92492 8.28714 8.98648C8.31792 9.01725 8.34357 9.05316 8.36921 9.08394C8.41538 9.14036 8.46154 9.20191 8.50258 9.26346C8.5231 9.28911 8.54361 9.31989 8.559 9.34554C8.68211 9.55584 8.77956 9.78153 8.83086 10.0277C8.83599 10.038 8.83599 10.0534 8.83599 10.0637C8.58978 9.99184 8.33331 9.9508 8.07171 9.94055H8.0358C8.00502 9.94055 7.97425 9.93542 7.94347 9.93542C7.86653 9.93542 7.79472 9.94055 7.71778 9.94567C7.69213 9.94567 7.66136 9.94567 7.63571 9.9508C7.50747 9.96106 7.38437 9.98158 7.25613 10.0072C7.13303 10.0329 7.00992 10.0688 6.89194 10.1098C6.87143 10.1149 6.85091 10.1252 6.82526 10.1355C6.72267 10.1714 6.62009 10.2124 6.52263 10.2637C6.51237 10.2688 6.50211 10.274 6.49698 10.2791C5.96352 10.5407 5.50188 10.9356 5.16847 11.4486C5.07101 11.5973 4.98894 11.7512 4.92226 11.9154C4.69656 11.6435 4.53755 11.3204 4.46061 10.9613C4.19901 9.76102 4.96842 8.571 6.17896 8.31453ZM2.40372 14.5262C2.6961 14.0748 3.14748 13.7671 3.67581 13.6542C3.80918 13.6286 3.94254 13.6132 4.0759 13.6132C4.27082 13.6132 4.46574 13.644 4.65553 13.7004C4.66578 13.7825 4.68117 13.8645 4.69656 13.9466C4.71708 14.0492 4.74273 14.1467 4.7735 14.2441C4.77863 14.2698 4.78889 14.2903 4.79915 14.3159C4.8248 14.3877 4.85044 14.4647 4.88122 14.5314C4.89148 14.5519 4.90174 14.5775 4.912 14.598C4.94277 14.6699 4.97868 14.7417 5.01458 14.8135C5.02484 14.8289 5.0351 14.8443 5.04023 14.8596C5.08127 14.9366 5.12743 15.0135 5.17873 15.0853C5.18385 15.0905 5.18898 15.0956 5.18898 15.1059C5.42494 15.4547 5.71731 15.7522 6.06098 15.9881C5.97378 16.4754 5.71218 16.9011 5.34287 17.1986C5.33261 17.2038 5.31722 17.2089 5.30696 17.2192C5.19411 17.3064 5.07614 17.3782 4.95303 17.4397C4.92738 17.45 4.90687 17.4602 4.88122 17.4705C4.84018 17.491 4.79402 17.5064 4.75298 17.5218C4.67091 17.5474 4.58884 17.5782 4.50677 17.5936C4.34263 17.6295 4.17336 17.6398 3.99896 17.6295H3.99383C3.82456 17.6193 3.65016 17.5885 3.47576 17.5321C3.45012 17.5269 3.4296 17.5218 3.40395 17.5167C2.76791 17.2858 2.26523 16.7319 2.11647 16.0394C2.00876 15.5162 2.11134 14.9776 2.40372 14.5262ZM5.24541 21.8818C5.11204 21.9126 4.97355 21.9228 4.84018 21.9228C3.93228 21.9228 3.13209 21.2765 2.94231 20.384C2.80894 19.748 3.00386 19.1017 3.45012 18.64C3.65529 18.6862 3.87073 18.7118 4.08616 18.7118C4.3016 18.7118 4.51703 18.6913 4.72734 18.6451C5.08127 18.5682 5.40955 18.4348 5.70192 18.2553C5.75322 18.281 5.79938 18.3066 5.85068 18.3374V18.3682C5.85068 18.4092 5.85581 18.4502 5.86094 18.4913C5.87119 18.6246 5.88658 18.758 5.91736 18.8913V18.8965C5.94301 19.0247 5.98404 19.1478 6.02508 19.2709C6.03534 19.3017 6.04559 19.3273 6.05585 19.3581C6.10202 19.4812 6.15331 19.5992 6.20973 19.7172C6.21486 19.7223 6.21486 19.7274 6.21999 19.7377C6.28155 19.8557 6.34823 19.9685 6.42517 20.0762C6.43543 20.0916 6.44056 20.1019 6.45082 20.1173C6.53289 20.2353 6.62009 20.343 6.71755 20.4456C6.54827 21.1585 5.97891 21.7228 5.24541 21.8818ZM9.62079 20.3891C9.4669 20.4199 9.30789 20.4404 9.15401 20.4404C8.56413 20.4404 8.02041 20.1993 7.61519 19.8095C7.55364 19.748 7.49208 19.6864 7.43566 19.6197C7.41001 19.5889 7.3895 19.553 7.36385 19.5223C7.31769 19.4607 7.27152 19.3992 7.23561 19.3376C7.20484 19.2863 7.17919 19.2248 7.15354 19.1735C7.1279 19.1222 7.10225 19.076 7.08173 19.0247C7.0407 18.9119 6.99966 18.799 6.97402 18.6759V18.6708C6.97402 18.6657 6.97402 18.6554 6.96889 18.6503C6.93298 18.4759 6.92272 18.2963 6.93298 18.0963V18.0758C6.96889 17.5064 7.23049 16.9576 7.66136 16.5677C7.75368 16.578 7.84601 16.578 7.93834 16.578C7.98964 16.578 8.04093 16.5729 8.09735 16.5677C8.13326 16.5677 8.16917 16.5626 8.19994 16.5626C8.24611 16.5575 8.29227 16.5575 8.34357 16.5472C8.44102 16.537 8.53335 16.5216 8.62568 16.5011H8.63081C8.63594 16.5011 8.64107 16.4959 8.6462 16.4959C8.74366 16.4754 8.83599 16.4498 8.92832 16.419C9.01039 16.3933 9.08733 16.3626 9.1694 16.3318C9.17966 16.3266 9.18992 16.3267 9.19505 16.3215C9.3797 16.2446 9.55923 16.1523 9.72337 16.0445C9.75415 16.0548 9.79006 16.0651 9.82083 16.0702C9.85161 16.1676 9.88752 16.2651 9.92855 16.3626C9.93368 16.3779 9.94394 16.3933 9.94907 16.4087C9.98497 16.4857 10.0209 16.5677 10.0619 16.6395C10.0722 16.6601 10.0824 16.6754 10.0927 16.696C10.1337 16.7678 10.1748 16.8396 10.2158 16.9063C10.2261 16.9268 10.2414 16.9422 10.2517 16.9627C10.2979 17.0294 10.3492 17.0961 10.4005 17.1627C10.4107 17.1781 10.4261 17.1935 10.4364 17.2089C10.4928 17.2756 10.5492 17.3423 10.6159 17.4038C10.6261 17.4141 10.6313 17.4243 10.6415 17.4295C10.8621 17.6552 11.1134 17.845 11.3904 17.9988C11.4828 19.1119 10.7339 20.1532 9.62079 20.3891ZM13.4422 17.2961C13.2883 17.3269 13.1293 17.3474 12.9754 17.3474C12.642 17.3474 12.3189 17.2653 12.0316 17.1268C11.9188 17.0755 11.8162 17.014 11.7136 16.9422C11.6828 16.9217 11.6572 16.9063 11.6264 16.8806C11.5802 16.8447 11.5341 16.8037 11.4879 16.7626C11.452 16.7319 11.4212 16.7011 11.3853 16.6652C11.3443 16.6242 11.3032 16.5831 11.2622 16.537C11.2109 16.4754 11.1647 16.4087 11.1186 16.342C11.0827 16.2907 11.0519 16.2292 11.0211 16.1728C10.9955 16.1266 10.9698 16.0753 10.9442 16.024C10.9237 15.9779 10.9031 15.9317 10.8826 15.8804C10.8467 15.7829 10.8108 15.6803 10.7903 15.5726V15.5572C10.7544 15.3777 10.7441 15.1879 10.7595 14.9725C10.7646 14.9622 10.7698 14.952 10.7749 14.9417C10.9903 14.5775 11.134 14.1774 11.2006 13.7568C11.293 13.6337 11.4007 13.5209 11.5187 13.4234C11.5289 13.4131 11.5443 13.4132 11.5546 13.4029C11.6879 13.29 11.8264 13.1977 11.9752 13.1208C11.9957 13.1105 12.0213 13.0951 12.0419 13.0849C12.0932 13.0592 12.1496 13.0387 12.2009 13.0182C12.3035 12.9823 12.4061 12.9464 12.5138 12.9207C12.6112 12.9002 12.7087 12.89 12.8061 12.8797C12.8267 12.8797 12.842 12.8797 12.8574 12.8746C12.9292 12.8694 13.0011 12.8746 13.0729 12.8746C13.1242 12.8746 13.1806 12.8797 13.2319 12.89C13.3037 12.9002 13.3704 12.9053 13.4422 12.9207C13.4678 12.9259 13.4935 12.9361 13.5191 12.9412C13.6012 12.9618 13.6833 12.9874 13.7653 13.0182C13.832 13.0438 13.8936 13.0746 13.9603 13.1054C13.9808 13.1156 14.0064 13.1259 14.0269 13.1362C14.0731 13.1618 14.1193 13.1926 14.1654 13.2234C14.2167 13.2541 14.268 13.29 14.3193 13.3311C14.3552 13.3567 14.3911 13.3824 14.4219 13.4132C14.4886 13.4696 14.5553 13.5311 14.6168 13.5978C14.6322 13.6132 14.6476 13.6235 14.6579 13.6388C14.7348 13.726 14.8015 13.8184 14.863 13.9107C14.8784 13.9312 14.8887 13.9517 14.8989 13.9723C14.9451 14.0492 14.9861 14.1313 15.022 14.2185C15.0323 14.2492 15.0477 14.2749 15.058 14.3057C15.099 14.4134 15.1349 14.5211 15.1605 14.6391C15.2016 14.8443 15.2118 15.0699 15.1862 15.3264C15.1862 15.3469 15.1913 15.3623 15.1913 15.3828C15.0785 16.301 14.3963 17.0909 13.4422 17.2961ZM16.0018 11.0844C16.1351 11.0536 16.2736 11.0434 16.407 11.0434C17.3251 11.0434 18.1305 11.6948 18.3203 12.5924C18.428 13.1054 18.3305 13.6286 18.0484 14.0646C17.7663 14.5006 17.3251 14.8032 16.8122 14.9109C16.6378 14.9468 16.4634 14.9571 16.2787 14.9417C16.2736 14.8545 16.2685 14.7724 16.2582 14.6852C16.248 14.5929 16.2326 14.5057 16.2172 14.4185C16.1967 14.3108 16.1659 14.2082 16.1351 14.1056C16.1249 14.0697 16.1095 14.0338 16.0941 13.9979C16.0736 13.9363 16.0479 13.8748 16.0223 13.8132C16.0018 13.7671 15.9812 13.726 15.9607 13.6799C15.9351 13.6337 15.9146 13.5824 15.8889 13.5363C15.8633 13.4901 15.8376 13.4388 15.8068 13.3926C15.7863 13.3567 15.7607 13.3208 15.7402 13.29C15.6683 13.1772 15.5863 13.0695 15.4991 12.972C15.4837 12.9566 15.4734 12.9412 15.4632 12.9259C15.4221 12.8797 15.376 12.8335 15.3349 12.7925L15.2426 12.7002C15.2016 12.6643 15.1605 12.6284 15.1195 12.5924C15.0733 12.5514 15.0272 12.5155 14.9759 12.4796C14.9451 12.454 14.9143 12.4334 14.8784 12.4078C14.7912 12.3462 14.704 12.2898 14.6168 12.2385C14.622 12.2283 14.6271 12.2129 14.6322 12.2026C14.6373 12.1924 14.6425 12.177 14.6527 12.1667C14.8169 11.8333 15.0682 11.546 15.3965 11.346C15.4016 11.3409 15.4068 11.3357 15.417 11.3306C15.5863 11.2126 15.7863 11.1306 16.0018 11.0844ZM14.5963 10.5663C14.2834 10.7972 14.0218 11.0947 13.8218 11.4281C13.8064 11.4537 13.7859 11.4794 13.7705 11.5101C13.7294 11.5871 13.6884 11.6692 13.6525 11.7512C13.6371 11.7871 13.6166 11.823 13.6012 11.8589C13.4012 11.8179 13.1908 11.7974 12.9805 11.7974H12.9446C12.8369 11.7974 12.7292 11.8025 12.6215 11.8179C12.5138 11.8282 12.4009 11.8487 12.2932 11.8692C11.8829 11.9564 11.4981 12.1205 11.1545 12.3462C11.1391 12.336 11.1237 12.3257 11.1032 12.3103C10.9288 11.7256 10.5954 11.2126 10.1594 10.8125C10.0978 10.4227 10.144 10.0329 10.2876 9.66869C10.2876 9.66356 10.2927 9.66356 10.2927 9.65843C10.3594 9.48916 10.4466 9.32502 10.5543 9.18139C10.5595 9.17626 10.5646 9.16601 10.5697 9.16088C10.621 9.0942 10.6723 9.02751 10.7287 8.96596C10.7322 8.96254 10.7339 8.95912 10.7339 8.9557C10.857 8.82234 10.9955 8.70949 11.1442 8.6069C11.1493 8.60177 11.1545 8.60177 11.1545 8.60177C11.2212 8.56074 11.2878 8.5197 11.3597 8.4838C11.375 8.47354 11.3904 8.46841 11.4109 8.45815C11.4725 8.42737 11.5341 8.40173 11.5956 8.38121C11.6161 8.37608 11.6366 8.36582 11.6572 8.36069C11.7341 8.33504 11.8162 8.3094 11.8982 8.29401H11.9034C12.0675 8.2581 12.2624 8.24784 12.4625 8.2581C12.4676 8.2581 12.4779 8.25297 12.483 8.25297C13.4832 8.30427 14.3398 9.02751 14.5501 10.0175C14.5963 10.197 14.6066 10.3765 14.5963 10.5663Z" fill="black" stroke="black" stroke-width="0.5"/>
</svg>
